<svg width="19" height="14" viewBox="0 0 19 14" fill="none" xmlns="http://www.w3.org/2000/svg">
<g id="Group 7908">
<path id="Vector" d="M16 1H2.66667C1.74619 1 1 1.74619 1 2.66667V11C1 11.9205 1.74619 12.6667 2.66667 12.6667H16C16.9205 12.6667 17.6667 11.9205 17.6667 11V2.66667C17.6667 1.74619 16.9205 1 16 1Z" stroke="#687684" stroke-width="2" stroke-linecap="round" stroke-linejoin="round"/>
<path id="Vector_2" d="M13.3874 8.03549C13.6877 8.03549 13.955 7.92045 14.1892 7.69037C14.4234 7.46029 14.5405 7.19187 14.5405 6.8851C14.5405 6.59013 14.4234 6.33055 14.1892 6.10637C13.955 5.8822 13.6877 5.77011 13.3874 5.77011C13.0871 5.77011 12.8198 5.8822 12.5856 6.10637C12.3514 6.33055 12.2342 6.59013 12.2342 6.8851C12.2342 7.19187 12.3514 7.46029 12.5856 7.69037C12.8198 7.92045 13.0871 8.03549 13.3874 8.03549ZM11.3694 10C10.973 10 10.6456 9.87906 10.3874 9.63719C10.1291 9.39531 10 9.08559 10 8.70802V5.30967C10 4.93211 10.1291 4.61944 10.3874 4.37166C10.6456 4.12389 10.973 4 11.3694 4H16.6486C17.045 4 17.3694 4.12389 17.6216 4.37166C17.8739 4.61944 18 4.93211 18 5.30967V8.70802C18 9.08559 17.8739 9.39531 17.6216 9.63719C17.3694 9.87906 17.045 10 16.6486 10H11.3694Z" fill="#687684"/>
</g>
</svg>
